<svg width="581" height="592" viewBox="0 0 581 592" fill="none" xmlns="http://www.w3.org/2000/svg">
<path d="M254.701 45.9269C247.893 46.5142 240.499 47.4539 238.269 48.0412C236.039 48.746 229.935 50.3904 224.771 51.7999C219.606 53.2095 213.503 55.3238 211.273 56.3809C209.043 57.5555 203.526 60.2571 198.948 62.3714C186.389 68.2444 169.605 78.9333 161.272 86.3333C136.154 108.533 121.717 126.74 110.449 150.349C105.988 159.746 100.941 172.902 100.941 175.251C100.941 175.721 169.488 176.19 253.293 176.19C392.146 176.19 406.583 176.073 417.616 174.194C424.189 173.019 429.588 171.727 429.588 171.257C429.588 170.787 431.114 170.317 432.874 170.317C436.278 170.317 447.194 166.911 453.65 163.975C455.645 163.035 460.692 160.686 465.035 158.689C471.842 155.4 493.674 142.009 495.317 139.895C495.669 139.543 497.782 137.898 500.012 136.254C504.942 132.848 509.989 128.384 518.088 120.162C540.154 97.7269 555.413 72.9428 562.807 47.3365L563.511 44.7523L415.268 44.8698C333.694 44.8698 261.509 45.3396 254.701 45.9269Z" fill="#43617B"/>
<path d="M212.446 312.562C195.897 313.149 191.906 313.736 184.864 316.203C173.948 320.079 167.844 323.251 157.516 330.416C148.713 336.406 130.285 354.848 130.285 357.549C130.285 358.489 129.581 359.781 128.642 360.486C126.294 362.482 119.369 378.692 112.092 399.365C109.744 406.178 105.754 417.219 103.289 424.032C96.0117 443.882 90.4952 461.149 88.9693 469.019C87.0913 478.181 87.2087 507.311 88.9693 515.063C90.7299 522.463 92.1384 526.34 96.4812 534.914C100.824 543.489 101.059 543.724 110.449 553.121C121.951 564.749 129.229 568.508 153.525 575.673C156.224 576.495 163.267 577.2 169.136 577.2L179.817 577.317L182.634 570.27C184.277 566.394 185.451 562.987 185.451 562.635C185.333 562.048 190.615 546.66 192.493 542.079C194.371 537.381 201.179 518.47 203.174 512.127C204.348 508.603 206.93 501.203 208.925 495.682C210.921 490.162 215.029 478.768 217.846 470.428C220.78 461.971 224.653 451.165 226.414 446.349C228.292 441.533 230.639 435.19 231.578 432.254C232.517 429.317 235.686 420.39 238.621 412.286C243.668 398.308 259.161 354.73 268.903 327.127C271.368 319.962 273.481 313.854 273.481 313.384C273.481 312.209 235.686 311.74 212.446 312.562Z" fill="#43617B"/>
<path d="M399.657 211.076C388.624 212.486 372.427 217.302 361.276 222.47C354.938 225.406 332.285 239.032 330.994 240.676C330.642 241.029 328.294 242.908 325.712 244.905C317.965 250.66 306.228 262.994 297.894 274.27C290.148 284.724 278.293 305.867 279.584 307.159C279.936 307.511 305.876 307.746 337.097 307.746C393.671 307.746 394.141 307.746 405.526 304.81C411.747 303.283 421.137 300.111 426.419 297.879C438.391 292.711 457.875 280.965 464.8 274.74C475.95 264.873 488.04 252.54 491.326 247.606C493.204 244.787 496.139 240.676 497.899 238.445C501.42 233.864 511.749 214.013 511.749 211.664C511.749 210.606 500.247 210.254 457.523 210.371C427.592 210.489 401.653 210.841 399.657 211.076Z" fill="#6B8AA6"/>
</svg>
